<?xml version="1.0" encoding="UTF-8"?>
<svg id="Layer_2" data-name="Layer 2" xmlns="http://www.w3.org/2000/svg" viewBox="0 0 67.19 68.45">
  <defs>
    <style>
      .cls-1 {
        fill: #00ceff;
        fill-rule: evenodd;
      }
    </style>
  </defs>
  <g id="Layer_2-2" data-name="Layer 2">
    <g id="Layer_1" data-name="Layer 1">
      <path class="cls-1" d="M33.6,0c22.84,0,33.59,12.06,33.6,34.22,0,22.16-10.75,34.23-33.6,34.23-22.85,0-33.6-12.07-33.6-34.23C0,12.06,10.75,0,33.6,0ZM33.6,15.07c-6.47,0-11.15,1.72-14.21,4.91-3.06,3.19-4.58,7.97-4.58,14.25,0,5.5,1.23,11.32,5.49,15.09.26.23.41.55.41.89v7.32c0,.91.98,1.48,1.77,1.04l9.15-5.07c.2-.11.44-.16.67-.14.43.03.86.02,1.29.02,6.47,0,11.15-1.71,14.21-4.89,3.06-3.19,4.58-7.97,4.58-14.25s-1.52-11.06-4.58-14.25c-3.06-3.19-7.73-4.91-14.21-4.91Z"/>
    </g>
  </g>
</svg>