<svg width="160" height="24" viewBox="0 0 160 24" fill="none" xmlns="http://www.w3.org/2000/svg">
<g id="salesmate-logo">
<g id="symbol">
<path id="Vector" d="M5.42247 6.27651C4.53087 5.95807 3.57492 5.86248 2.63791 5.99806H2.56421V5.93253C3.05782 4.68119 3.91932 3.60897 5.03497 2.8574C6.15061 2.10584 7.46795 1.71029 8.81307 1.72295H11.27V4.42561H8.81307C8.14963 4.42626 7.4968 4.59205 6.91345 4.90803C6.33011 5.22401 5.83459 5.68024 5.4716 6.23556L5.42247 6.27651Z" fill="#1F62FF"/>
<path id="Vector_2" d="M25.8718 21.7048C24.9906 21.7073 24.1177 21.5348 23.3037 21.1974C22.4898 20.86 21.7508 20.3644 21.1298 19.7393C20.4883 19.0731 19.987 18.285 19.6556 17.4216V17.3478H19.7294C20.6518 17.5289 21.6044 17.484 22.5057 17.2168C22.8699 17.7668 23.3671 18.2159 23.9514 18.5223C24.5355 18.8287 25.1877 18.9825 25.8472 18.9694H28.3041V21.6721L25.8718 21.7048Z" fill="#1F62FF"/>
<path id="Vector_3" d="M19.2875 6.1453C18.9174 5.60708 18.4185 5.17 17.8364 4.87389C17.2541 4.5778 16.6071 4.43207 15.9542 4.45H13.4972V1.72277H15.9542C17.2909 1.7148 18.599 2.10984 19.7078 2.85637C20.8166 3.60292 21.6748 4.66629 22.1703 5.90779V5.97331H22.113C21.8416 5.93517 21.568 5.91602 21.294 5.91598C20.6339 5.8991 19.9749 5.97632 19.3366 6.1453H19.2875Z" fill="#1F62FF"/>
<path id="Vector_4" d="M30.5648 21.7062V19.0036H33.0218C33.6853 19.0029 34.3381 18.8371 34.9215 18.5211C35.5048 18.2051 36.0003 17.7489 36.3633 17.1936C36.9886 17.4176 37.6482 17.5312 38.3124 17.5294C38.5865 17.5291 38.8601 17.5099 39.1315 17.4721H39.2052V17.5376C38.7097 18.7791 37.8515 19.8425 36.7427 20.589C35.6338 21.3355 34.3257 21.7305 32.9891 21.7226L30.5648 21.7062Z" fill="#1F62FF"/>
<path id="Vector_5" d="M13.5052 21.7057V19.0031H15.9623C16.6174 19.0183 17.2659 18.8689 17.8482 18.5684C18.4307 18.2679 18.9283 17.826 19.2955 17.2832C19.801 17.4129 20.3216 17.4735 20.8434 17.4634H21.1382C21.4509 17.4516 21.7613 17.4049 22.0637 17.3242H22.1456V17.3979C21.6535 18.6494 20.8024 19.7278 19.6993 20.4971C18.5963 21.2664 17.2904 21.6927 15.9459 21.7221L13.5052 21.7057Z" fill="#1F62FF"/>
<path id="Vector_6" d="M3.4725 15.2048C5.39031 15.2048 6.945 13.6501 6.945 11.7323C6.945 9.81445 5.39031 8.25977 3.4725 8.25977C1.55469 8.25977 0 9.81445 0 11.7323C0 13.6501 1.55469 15.2048 3.4725 15.2048Z" fill="#1F62FF"/>
<path id="Vector_7" d="M8.8123 21.7071C7.47558 21.7151 6.1675 21.3201 5.05866 20.5736C3.94981 19.827 3.09168 18.7636 2.59619 17.5221V17.4566H2.6699C2.94125 17.4945 3.2149 17.5137 3.48889 17.5139C4.15614 17.5112 4.81804 17.3948 5.44626 17.1699C5.80925 17.7253 6.30477 18.1815 6.88811 18.4975C7.47146 18.8135 8.1243 18.9793 8.78772 18.9799H11.2447V21.6825L8.8123 21.7071Z" fill="#1F62FF"/>
<path id="Vector_8" d="M20.8263 15.2048C22.7441 15.2048 24.2988 13.6501 24.2988 11.7323C24.2988 9.81445 22.7441 8.25977 20.8263 8.25977C18.9085 8.25977 17.3538 9.81445 17.3538 11.7323C17.3538 13.6501 18.9085 15.2048 20.8263 15.2048Z" fill="#1F62FF"/>
<path id="Vector_9" d="M38.353 15.2048C40.2709 15.2048 41.8256 13.6501 41.8256 11.7323C41.8256 9.81445 40.2709 8.25977 38.353 8.25977C36.4352 8.25977 34.8806 9.81445 34.8806 11.7323C34.8806 13.6501 36.4352 15.2048 38.353 15.2048Z" fill="#1F62FF"/>
<path id="Vector_10" d="M36.3553 6.25996C35.9923 5.70463 35.4968 5.2484 34.9134 4.93242C34.3301 4.61645 33.6772 4.45064 33.0138 4.45H30.5569V1.72277H33.0138C34.3505 1.7148 35.6586 2.10984 36.7675 2.85637C37.8762 3.60292 38.7344 4.66629 39.2299 5.90779V5.97331H39.1562C38.2191 5.8374 37.2631 5.933 36.3717 6.25177L36.3553 6.25996Z" fill="#1F62FF"/>
<path id="Vector_11" d="M22.4892 6.22703C21.9574 6.0689 21.406 5.9862 20.8512 5.98134C20.4774 5.98124 20.1044 6.01689 19.7374 6.0878H19.6637V6.0141C19.9915 5.14835 20.49 4.35736 21.1297 3.68818C21.7523 3.06358 22.4929 2.56891 23.3083 2.23289C24.1238 1.89687 24.9978 1.72621 25.8798 1.7308H28.3367V4.43345H25.8798C25.2203 4.4204 24.5682 4.57422 23.9839 4.88063C23.3998 5.18704 22.9025 5.63608 22.5383 6.18608L22.4892 6.22703Z" fill="#1F62FF"/>
</g>
<g id="text">
<path id="Vector_12" d="M51.1975 18.8013C50.2632 18.5485 49.3916 18.1045 48.6377 17.4973L49.5976 15.3214C50.2792 15.8442 51.0448 16.2473 51.8615 16.5133C52.7253 16.8169 53.6338 16.9737 54.5493 16.9773C55.415 17.0351 56.2796 16.8494 57.0452 16.4413C57.2929 16.2984 57.4978 16.0917 57.6385 15.8427C57.7792 15.5936 57.8505 15.3115 57.8452 15.0254C57.8505 14.825 57.8117 14.6257 57.7316 14.4419C57.6514 14.258 57.5317 14.094 57.3812 13.9615C57.0418 13.6639 56.644 13.4405 56.2133 13.3055C55.7439 13.1509 55.1013 12.9723 54.2853 12.7696C53.3439 12.5628 52.4167 12.2956 51.5095 11.9696C50.8061 11.7024 50.1796 11.2654 49.6856 10.6977C49.1365 10.0432 48.8513 9.20748 48.8857 8.35387C48.8767 7.54882 49.1109 6.7598 49.5576 6.09001C50.0692 5.37121 50.7775 4.8156 51.5975 4.49011C52.656 4.06156 53.7918 3.85726 54.9333 3.89014C55.8455 3.88997 56.754 4.00556 57.6372 4.23412C58.4523 4.4308 59.2285 4.76344 59.933 5.21806L59.0851 7.32193C58.4405 6.94119 57.7495 6.64542 57.0292 6.44198C56.3531 6.24611 55.6533 6.14382 54.9493 6.138C54.0933 6.07799 53.2389 6.27284 52.4934 6.69797C52.2445 6.85549 52.0403 7.0743 51.9002 7.33344C51.7601 7.59258 51.689 7.88334 51.6935 8.17788C51.6883 8.37604 51.7272 8.57287 51.8074 8.75412C51.8877 8.93538 52.0072 9.0965 52.1575 9.22581C52.4997 9.51564 52.897 9.73333 53.3254 9.86578C53.7948 10.0204 54.4373 10.1991 55.2533 10.4017C56.1855 10.6037 57.1024 10.8709 57.9972 11.2017C58.7011 11.4724 59.3294 11.9087 59.829 12.4736C60.3767 13.1164 60.6623 13.9417 60.629 14.7855C60.6377 15.5855 60.4034 16.3693 59.957 17.0333C59.4427 17.7527 58.7316 18.3083 57.9092 18.6333C56.8476 19.0609 55.7093 19.2651 54.5653 19.2332C53.4275 19.2574 52.2925 19.1118 51.1975 18.8013Z" fill="#17274D"/>
<path id="Vector_13" d="M71.1158 8.72245C71.5878 9.20026 71.9514 9.77406 72.1819 10.4049C72.4125 11.0357 72.5045 11.7087 72.4517 12.3783V19.0898H69.9239V17.7219C69.5783 18.2343 69.0883 18.6324 68.516 18.8658C67.818 19.1488 67.0691 19.2848 66.3162 19.2658C65.544 19.2821 64.7773 19.132 64.0683 18.8258C63.4668 18.5664 62.9509 18.1421 62.5804 17.6019C62.2288 17.08 62.0446 16.4632 62.0524 15.834C62.0371 15.3613 62.1325 14.8916 62.3312 14.4624C62.5298 14.0332 62.8261 13.6564 63.1964 13.3622C64.2599 12.6544 65.5306 12.3247 66.8041 12.4263H69.7639V12.2583C69.7851 11.9176 69.7317 11.5765 69.6073 11.2587C69.4829 10.9409 69.2907 10.6541 69.044 10.4183C68.4358 9.94784 67.6748 9.71979 66.9081 9.77838C66.2641 9.77998 65.6244 9.88255 65.0122 10.0824C64.4324 10.2435 63.8891 10.5151 63.4123 10.8823L62.3964 8.92244C63.0475 8.44124 63.7827 8.08583 64.5643 7.8745C65.4357 7.62597 66.3379 7.50208 67.2441 7.50653C68.6413 7.41347 70.0227 7.84729 71.1158 8.72245ZM68.676 16.826C69.1884 16.5302 69.5795 16.0626 69.7799 15.506V14.1781H67.0121C65.4709 14.1781 64.7003 14.6848 64.7003 15.698C64.693 15.9239 64.7418 16.148 64.8422 16.3504C64.9428 16.5528 65.0918 16.7272 65.2762 16.858C65.7495 17.1695 66.3103 17.3208 66.8761 17.2899C67.5072 17.3025 68.1297 17.1421 68.676 16.826Z" fill="#17274D"/>
<path id="Vector_14" d="M75.675 3.17969H78.3549V19.0827H75.675V3.17969Z" fill="#17274D"/>
<path id="Vector_15" d="M92.3707 14.2183H83.3868C83.5184 15.0231 83.9608 15.7442 84.6187 16.2262C85.3401 16.735 86.2084 16.9935 87.0906 16.9621C87.6655 16.9808 88.2381 16.8803 88.7722 16.6669C89.3067 16.4535 89.7903 16.1319 90.1947 15.7222L91.6347 17.3701C91.1112 17.9904 90.4392 18.4691 89.6827 18.762C88.7167 19.1159 87.6899 19.2735 86.6624 19.2254C85.6349 19.1773 84.6273 18.9246 83.6988 18.482C82.7753 18.013 82.006 17.2882 81.4829 16.3942C80.9475 15.4743 80.6711 14.4266 80.683 13.3623C80.6801 12.3068 80.956 11.2692 81.4829 10.3545C81.9779 9.47486 82.7096 8.75154 83.5948 8.26665C84.5264 7.75832 85.5735 7.4993 86.6346 7.5147C87.679 7.4954 88.7103 7.74909 89.6267 8.25065C90.4952 8.73478 91.208 9.45616 91.6827 10.3305C92.1885 11.2825 92.4418 12.3485 92.4187 13.4263C92.4134 13.6237 92.3974 13.8876 92.3707 14.2183ZM84.4507 10.4105C83.853 10.9285 83.4683 11.6495 83.3708 12.4344H89.8667C89.7752 11.6568 89.4027 10.9397 88.8185 10.4185C88.2167 9.88739 87.4371 9.60186 86.6346 9.61857C85.8321 9.60186 85.0526 9.88739 84.4507 10.4185V10.4105Z" fill="#17274D"/>
<path id="Vector_16" d="M95.5858 18.8732C94.832 18.6889 94.1156 18.3778 93.4658 17.9533L94.4978 15.9135C95.072 16.2737 95.6978 16.5435 96.3538 16.7134C97.048 16.9172 97.7672 17.0223 98.4898 17.0254C100.09 17.0254 100.89 16.6041 100.89 15.7615C100.887 15.5807 100.827 15.4057 100.717 15.2617C100.608 15.1178 100.455 15.0126 100.282 14.9615C99.6445 14.7501 98.9876 14.6001 98.3218 14.5135C97.5432 14.4055 96.7725 14.2397 96.0178 14.0176C95.4267 13.833 94.8943 13.4965 94.4738 13.0416C94.0125 12.5061 93.7769 11.8118 93.8178 11.1057C93.8063 10.5916 93.9254 10.0829 94.1627 9.62691C94.4009 9.17093 94.7503 8.78254 95.1778 8.49788C96.2694 7.79632 97.5538 7.45497 98.8498 7.52194C99.6445 7.52403 100.436 7.61525 101.21 7.79392C101.886 7.93174 102.537 8.17467 103.138 8.51387L102.098 10.5218C101.102 9.9446 99.9689 9.64875 98.8178 9.66581C98.2 9.6286 97.5832 9.74976 97.0258 10.0178C96.8472 10.1014 96.696 10.2335 96.5885 10.3989C96.4809 10.5643 96.4223 10.7565 96.4178 10.9537C96.4125 11.1566 96.4738 11.3555 96.592 11.5202C96.7112 11.6849 96.88 11.8063 97.0738 11.8657C97.7298 12.101 98.408 12.2699 99.0978 12.3697C99.8587 12.4796 100.61 12.6454 101.346 12.8657C101.922 13.0457 102.443 13.3707 102.858 13.8096C103.308 14.3318 103.534 15.0097 103.49 15.6975C103.499 16.2102 103.375 16.7167 103.132 17.1678C102.887 17.619 102.532 17.9998 102.098 18.2733C100.962 18.9737 99.6392 19.3113 98.3058 19.2412C97.3867 19.2411 96.472 19.1173 95.5858 18.8732Z" fill="#17274D"/>
<path id="Vector_17" d="M123.465 8.76336C123.916 9.27322 124.261 9.86885 124.478 10.5148C124.696 11.1607 124.78 11.8437 124.728 12.5231V19.0827H122.049V12.8671C122.109 12.057 121.873 11.2525 121.385 10.6032C121.147 10.3366 120.852 10.1264 120.524 9.988C120.194 9.8496 119.837 9.7865 119.481 9.80329C119.076 9.78541 118.674 9.85556 118.3 10.0089C117.924 10.1622 117.588 10.395 117.313 10.6912C116.735 11.405 116.45 12.311 116.513 13.227V19.0347H113.833V12.8191C113.893 12.009 113.658 11.2045 113.169 10.5552C112.932 10.2886 112.637 10.0784 112.308 9.94001C111.979 9.80161 111.622 9.73851 111.265 9.75529C110.86 9.73577 110.456 9.80434 110.081 9.95626C109.705 10.1082 109.367 10.3398 109.09 10.6352C108.51 11.3543 108.224 12.266 108.29 13.187V18.9947H105.594V7.64342H108.146V9.09933C108.576 8.58418 109.125 8.18076 109.746 7.9234C110.425 7.64462 111.155 7.50586 111.889 7.51543C112.676 7.50007 113.455 7.66421 114.169 7.99539C114.831 8.30211 115.388 8.79747 115.769 9.41931C116.254 8.8118 116.881 8.33138 117.593 8.0194C118.369 7.67688 119.209 7.50501 120.057 7.51543C120.679 7.48469 121.302 7.5793 121.887 7.79368C122.473 8.00804 123.009 8.33778 123.465 8.76336Z" fill="#17274D"/>
<path id="Vector_18" d="M136.192 8.72196C136.664 9.19977 137.028 9.77357 137.258 10.4044C137.488 11.0352 137.58 11.7082 137.528 12.3777V19.0894H135V17.7214C134.651 18.2249 134.161 18.6144 133.592 18.8414C132.893 19.1242 132.145 19.2604 131.392 19.2413C130.62 19.2576 129.853 19.1075 129.144 18.8014C128.542 18.5419 128.027 18.1177 127.656 17.5775C127.305 17.0555 127.12 16.4388 127.128 15.8096C127.113 15.3369 127.208 14.8672 127.407 14.4379C127.605 14.0087 127.902 13.632 128.272 13.3377C129.336 12.6299 130.606 12.3002 131.88 12.4017H134.84V12.2337C134.861 11.8931 134.807 11.5521 134.684 11.2343C134.559 10.9164 134.366 10.6297 134.12 10.3939C133.518 9.91384 132.76 9.67436 131.992 9.7219C131.348 9.7235 130.708 9.82608 130.096 10.0259C129.516 10.187 128.973 10.4586 128.496 10.8258L127.48 8.92195C128.132 8.44075 128.867 8.08535 129.648 7.87401C130.519 7.62548 131.421 7.5016 132.328 7.50604C133.723 7.41501 135.1 7.84872 136.192 8.72196ZM133.752 16.8255C134.264 16.5297 134.655 16.0621 134.856 15.5056V14.1777H132.088C130.547 14.1777 129.776 14.6842 129.776 15.6976C129.769 15.9234 129.818 16.1476 129.918 16.35C130.019 16.5524 130.168 16.7267 130.352 16.8575C130.826 17.1689 131.386 17.3203 131.952 17.2895C132.58 17.3006 133.2 17.1402 133.744 16.8255H133.752Z" fill="#17274D"/>
<path id="Vector_19" d="M147.623 18.4666C147.285 18.7349 146.896 18.9309 146.479 19.0426C146.016 19.1726 145.537 19.2373 145.055 19.2346C143.993 19.303 142.947 18.9494 142.143 18.2506C141.782 17.8695 141.503 17.4174 141.325 16.9231C141.148 16.4287 141.076 15.9029 141.111 15.3788V9.86713H139.191V7.72326H141.079V5.10742H143.759V7.72326H146.823V9.86713H143.759V15.3228C143.728 15.7833 143.874 16.2383 144.167 16.5947C144.321 16.7471 144.505 16.8653 144.708 16.9411C144.91 17.0169 145.127 17.0488 145.343 17.0347C145.884 17.055 146.415 16.8884 146.847 16.5627L147.623 18.4666Z" fill="#17274D"/>
<path id="Vector_20" d="M159.95 14.2183H150.967C151.099 15.0231 151.541 15.7442 152.199 16.2262C152.92 16.735 153.788 16.9935 154.671 16.9621C155.245 16.9808 155.819 16.8803 156.353 16.6669C156.886 16.4535 157.371 16.1319 157.774 15.7222L159.214 17.3701C158.691 17.9904 158.019 18.4691 157.263 18.762C156.297 19.1159 155.27 19.2735 154.243 19.2254C153.215 19.1773 152.208 18.9246 151.279 18.482C150.355 18.013 149.586 17.2882 149.063 16.3942C148.528 15.4743 148.251 14.4266 148.263 13.3623C148.26 12.3068 148.536 11.2692 149.063 10.3545C149.558 9.47486 150.29 8.75154 151.175 8.26665C152.107 7.75832 153.154 7.4993 154.215 7.5147C155.259 7.4954 156.291 7.74909 157.207 8.25065C158.075 8.73478 158.788 9.45616 159.262 10.3305C159.769 11.2825 160.022 12.3485 159.998 13.4263C159.993 13.6237 159.977 13.8876 159.95 14.2183ZM152.031 10.4105C151.433 10.9285 151.049 11.6495 150.951 12.4344H157.447C157.355 11.6568 156.983 10.9397 156.399 10.4185C155.796 9.88739 155.018 9.60186 154.215 9.61857C153.398 9.59167 152.603 9.87785 151.991 10.4185L152.031 10.4105Z" fill="#17274D"/>
</g>
</g>
</svg>
