<svg xmlns="http://www.w3.org/2000/svg" width="200" height="200" viewBox="0 0 200 200" role="img" aria-label="Drift">
  <rect width="200" height="200" rx="44" fill="#3660F9"/>
  <path fill="#FFFFFF" d="M100 40c-30.9 0-56 24.2-56 54.1 0 16.2 7.4 30.7 19.1 40.6 1.9 1.6 2.6 4.2 1.8 6.5l-5.4 15.4c-1 2.9 2 5.5 4.7 4.1l24.6-12.9c1.5-.8 3.2-1 4.9-.7 4.1.6 8.2.9 12.3.6 29.2-1.9 51.8-25.3 51.8-53.3C158.8 64.2 133.7 40 100 40Z"/>
  <path fill="#3660F9" d="M83 84c0-2.8 2.2-5 5-5h30c2.8 0 5 2.2 5 5s-2.2 5-5 5H88c-2.8 0-5-2.2-5-5Zm0 22c0-2.8 2.2-5 5-5h20c2.8 0 5 2.2 5 5s-2.2 5-5 5H88c-2.8 0-5-2.2-5-5Z"/>
</svg>
