<svg xmlns="http://www.w3.org/2000/svg" width="127" height="28" fill="none"><path fill="#262C39" d="M31.446 5.723h2.836v13.369h6.775v2.566h-9.61zM41.79 10.854h2.7v10.804h-2.7zm-.383-3.668q0-.653.473-1.126.495-.495 1.237-.495t1.238.473q.518.45.518 1.148 0 .697-.518 1.17-.494.45-1.238.45-.742 0-1.237-.473a1.61 1.61 0 0 1-.473-1.147M46.466 10.854h2.565v1.733h.045a3.7 3.7 0 0 1 1.17-1.395q.789-.608 2.139-.608 1.08 0 1.823.36.765.36 1.238.945.472.585.675 1.35a6.2 6.2 0 0 1 .203 1.599v6.82h-2.701v-5.47q0-.45-.045-.99a3.3 3.3 0 0 0-.248-1.035q-.18-.495-.585-.81-.405-.338-1.103-.338-.675 0-1.148.225-.45.225-.765.608a2.5 2.5 0 0 0-.428.877q-.135.495-.135 1.036v5.897h-2.7zM69.383 10.854v9.836q0 1.463-.36 2.633-.36 1.193-1.126 2.003-.743.833-1.89 1.283-1.149.45-2.724.45-1.508 0-2.858-.383t-2.498-1.395l1.62-2.206a6.6 6.6 0 0 0 1.688 1.148q.877.405 2.026.405.968 0 1.62-.27.675-.27 1.058-.742a2.66 2.66 0 0 0 .563-1.148q.18-.653.18-1.463v-.788h-.045a3.64 3.64 0 0 1-1.553 1.193 5.3 5.3 0 0 1-1.98.383q-1.216 0-2.206-.428a5.6 5.6 0 0 1-1.711-1.193 5.2 5.2 0 0 1-1.08-1.756 6.1 6.1 0 0 1-.383-2.16q0-1.193.36-2.228t1.058-1.8a4.9 4.9 0 0 1 1.665-1.194q.99-.45 2.251-.45 1.148 0 2.138.45t1.576 1.44h.045v-1.62zm-5.762 2.16q-.72 0-1.306.248-.585.225-1.012.653-.405.405-.653 1.013-.225.585-.225 1.305 0 .652.225 1.216.248.562.675.99t1.013.675q.585.248 1.26.248a3.4 3.4 0 0 0 1.328-.248 3 3 0 0 0 1.013-.652q.428-.428.653-1.013t.225-1.26q0-1.419-.855-2.296-.855-.879-2.341-.878M69.853 10.854H72.8l2.88 7.563h.046l2.903-7.563H81.4l-4.254 10.804h-2.881zM88.613 20.172h-.067q-.585.922-1.486 1.35-.9.406-1.98.406a5.4 5.4 0 0 1-1.463-.203 4.1 4.1 0 0 1-1.26-.608 3.2 3.2 0 0 1-.878-1.012q-.338-.608-.338-1.418 0-.878.315-1.486.315-.63.833-1.035.54-.427 1.238-.675a8 8 0 0 1 1.44-.36q.765-.135 1.53-.158.766-.045 1.441-.045h.675v-.293q0-1.013-.697-1.508-.698-.517-1.778-.517-.855 0-1.598.315a3.9 3.9 0 0 0-1.283.81l-1.418-1.418a5.25 5.25 0 0 1 2.093-1.328 7.9 7.9 0 0 1 2.498-.405q1.147 0 1.936.27.788.248 1.305.653.518.405.788.945.292.518.405 1.058.135.54.158 1.058.022.495.022.878v6.211h-2.43zm-.157-3.354h-.563q-.562 0-1.26.045a6.3 6.3 0 0 0-1.328.226q-.607.157-1.036.495-.427.315-.427.9 0 .383.157.653.18.247.45.427t.608.27q.338.068.675.068 1.396 0 2.049-.653.675-.675.675-1.823zM92.825 10.854h2.565v1.733h.045a3.7 3.7 0 0 1 1.17-1.395q.789-.608 2.139-.608 1.08 0 1.823.36.765.36 1.238.945.472.585.675 1.35a6.2 6.2 0 0 1 .203 1.599v6.82h-2.701v-5.47q0-.45-.045-.99a3.3 3.3 0 0 0-.248-1.035 1.77 1.77 0 0 0-.585-.81q-.405-.338-1.103-.338-.675 0-1.148.225-.45.225-.765.608a2.5 2.5 0 0 0-.427.877q-.135.495-.136 1.036v5.897h-2.7zM106.784 17.201q.135 1.215.945 1.89t1.958.676q1.013 0 1.688-.405a4.8 4.8 0 0 0 1.216-1.058l1.935 1.463q-.945 1.17-2.115 1.665a6.2 6.2 0 0 1-2.454.495 6.5 6.5 0 0 1-2.295-.405 5.5 5.5 0 0 1-1.868-1.147 5.6 5.6 0 0 1-1.261-1.779q-.45-1.057-.45-2.34t.45-2.318a5.55 5.55 0 0 1 1.261-1.801 5.5 5.5 0 0 1 1.868-1.148 6.5 6.5 0 0 1 2.295-.405q1.126 0 2.048.405.946.383 1.598 1.125.676.743 1.036 1.846.382 1.08.382 2.498v.743zm5.537-2.026q-.023-1.193-.743-1.868-.72-.697-2.003-.697-1.216 0-1.936.697-.698.699-.855 1.868zM119.213 15.85l-3.737-4.996h3.286l2.161 3.241 2.341-3.24h3.083l-3.691 4.996L127 21.657h-3.286l-2.813-3.87-2.836 3.87h-3.196z"/><path fill="url(#a)" d="M0 12.706C0 6.208 5.267.94 11.765.94S23.53 6.208 23.53 12.706V24.47H11.765C5.267 24.47 0 19.203 0 12.706"/><defs><linearGradient id="a" x1="-6.061" x2="28.521" y1="33.205" y2="-4.407" gradientUnits="userSpaceOnUse"><stop stop-color="#3A5FF7"/></linearGradient></defs></svg>