<svg fill="none" viewBox="0 0 64 64" xmlns="http://www.w3.org/2000/svg"><title>Azure OpenAI</title><path fill="url(#pelYsnGiZ__a)" fill-rule="evenodd" d="M4.998 13.098v37.8a8.1 8.1 0 0 0 8.1 8.1h37.8a8.1 8.1 0 0 0 8.1-8.1v-37.8a8.1 8.1 0 0 0-8.1-8.1h-37.8a8.1 8.1 0 0 0-8.1 8.1m32.4-8.1v10.8c0 11.928 9.672 21.6 21.6 21.6h-10.8c-11.928 0-21.597 9.666-21.6 21.594V48.198c0-11.928-9.672-21.6-21.6-21.6h10.8c11.928 0 21.6-9.672 21.6-21.6" clip-rule="evenodd"/><defs><radialGradient id="pelYsnGiZ__a" cx="0" cy="0" r="1" gradientTransform="rotate(45 -22.137 51.103)scale(33.8728 46.1011)" gradientUnits="userSpaceOnUse"><stop stop-color="#83B9F9"/><stop offset="1" stop-color="#0078D4"/></radialGradient></defs></svg>
