<svg xmlns="http://www.w3.org/2000/svg" fill="none" viewBox="0 0 96 96" id="Aws-Sqs--Streamline-Svg-Logos" height="24" width="24">
  <desc>
    Aws Sqs Streamline Icon: https://streamlinehq.com
  </desc>
  <path fill="url(#a)" d="M95 1H1v94h94V1Z"></path>
  <path fill="#ffffff" d="m34.7426 52.3331 3.5272-3.4849c.2211-.2184.3457-.5152.3469-.8247.0012-.3096-.1223-.6075-.3422-.8272l-3.5272-3.5245-1.6672 1.6472 1.5131 1.5129h-5.3826v2.3364h5.4015l-1.5273 1.5082 1.6578 1.6566Zm26.9201.1063 4.703-3.507c.2939-.2208.4691-.5666.4691-.9335 0-.368-.1752-.7149-.4703-.9357l-4.703-3.5024-1.4109 1.8692 1.8812 1.4019h-4.703v2.3364h4.7018l-1.8812 1.4019 1.4133 1.8692Zm-19.293-4.4393c0 2.4802-.4292 4.819-1.231 6.8541 2.1152-.8131 4.5008-1.2197 6.884-1.2197 2.3833 0 4.7689.4066 6.8829 1.2197-.8007-2.0351-1.2298-4.3739-1.2298-6.8541s.4291-4.8178 1.2298-6.8541c-4.2292 1.625-9.5365 1.625-13.7669 0 .8018 2.0363 1.231 4.3739 1.231 6.8541Zm-5.76 11.3401c-.2293-.2278-.3445-.5268-.3445-.8259 0-.2991.1152-.5981.3445-.826 2.134-2.1203 3.4085-5.743 3.4085-9.6882s-1.2745-7.5679-3.4085-9.6883c-.2293-.2278-.3445-.5268-.3445-.8259 0-.2991.1152-.5981.3445-.826.4597-.4567 1.2028-.4567 1.6625 0 4.556 4.527 14.945 4.527 19.5011 0 .4597-.4567 1.2028-.4567 1.6625 0 .2293.2279.3445.5269.3445.826 0 .2991-.1152.5981-.3445.8259-2.134 2.1204-3.4085 5.7431-3.4085 9.6883s1.2745 7.5679 3.4085 9.6882c.2293.2279.3445.5269.3445.826 0 .2991-.1152.5981-.3445.8259-.2293.2279-.5303.3423-.8313.3423-.301 0-.602-.1144-.8312-.3423-4.5561-4.5269-14.9451-4.5269-19.5011 0-.4597.4568-1.2028.4568-1.6625 0Zm41.9415-11.3343c0-1.0888-.4268-2.1121-1.2016-2.882-.7995-.7956-1.8506-1.1916-2.9006-1.1916-1.0499 0-2.1011.396-2.9006 1.1916-1.6002 1.5888-1.6002 4.1741 0 5.7641 1.5991 1.5888 4.1998 1.59 5.8012 0 .7748-.7699 1.2016-1.7933 1.2016-2.8821Zm.4609 4.534c-1.258 1.25-2.91 1.875-4.5631 1.875-1.6531 0-3.305-.625-4.5631-1.875-2.5173-2.5-2.5173-6.5679 0-9.0679 2.5173-2.5024 6.6113-2.5001 9.1262 0 2.5173 2.5 2.5173 6.5679 0 9.0679Zm-53.3605-4.5071c0-1.0888-.4268-2.1122-1.2016-2.8821-.7748-.7698-1.8048-1.1939-2.9006-1.1939-1.0946 0-2.1246.4241-2.9006 1.1939-.7748.7699-1.2004 1.7933-1.2004 2.8821 0 1.0876.4256 2.111 1.2004 2.8821 1.5508 1.5385 4.2516 1.5385 5.8012 0 .7748-.7711 1.2016-1.7945 1.2016-2.8821Zm.4609 4.534c-1.258 1.25-2.91 1.875-4.5631 1.875-1.6519 0-3.3039-.625-4.5631-1.875-2.5149-2.5001-2.5149-6.5679 0-9.0679 2.5173-2.5001 6.6101-2.5001 9.1262 0 2.5161 2.5 2.5161 6.5678 0 9.0679ZM65.5027 65.456c-4.6936 4.6648-10.9357 7.2326-17.574 7.2326-6.6407 0-12.8816-2.5678-17.5752-7.2326-3.2192-3.1975-4.9911-7.0188-5.9106-9.6602l-2.2221.764c1.0005 2.8739 2.9347 7.0364 6.4702 10.5481 5.138 5.1064 11.9691 7.9172 19.2377 7.9172 7.2673 0 14.0985-2.8108 19.2365-7.9172 2.9688-2.9475 5.3332-6.6952 6.6607-10.5516l-2.2246-.757c-1.2133 3.5258-3.3791 6.9557-6.0986 9.6567ZM24.4418 40.2056l-2.2199-.7664c1.4227-4.0702 3.7225-7.8179 6.4761-10.5528 5.1357-5.1017 11.9645-7.9113 19.2307-7.9113 7.2661 0 14.0949 2.8096 19.2295 7.9113 2.8982 2.8798 5.3285 6.7256 6.6653 10.5528l-2.2198.7664c-1.2263-3.5048-3.452-7.0282-6.1081-9.6673-4.69-4.6612-10.9298-7.2267-17.5669-7.2267-6.6383 0-12.8769 2.5655-17.5682 7.2267-2.5067 2.4919-4.6089 5.9254-5.9187 9.6673Z"></path>
  <defs>
    <linearGradient id="a" x1="1" x2="9401" y1="9401" y2="1" gradientUnits="userSpaceOnUse">
      <stop stop-color="#b0084d"></stop>
      <stop offset="1" stop-color="#ff4f8b"></stop>
    </linearGradient>
  </defs>
</svg>